<svg width="16" height="16" viewBox="0 0 16 16" fill="none" xmlns="http://www.w3.org/2000/svg">
    <path
        d="M9.49412 11.1513C9.31385 11.3448 9.09647 11.4999 8.85493 11.6076C8.6134 11.7152 8.35266 11.773 8.08827 11.7777C7.82389 11.7824 7.56127 11.7337 7.31609 11.6347C7.07091 11.5357 6.84819 11.3883 6.66121 11.2013C6.47423 11.0143 6.32683 10.7916 6.2278 10.5464C6.12876 10.3012 6.08013 10.0386 6.08479 9.77423C6.08946 9.50985 6.14733 9.24911 6.25495 9.00757C6.36257 8.76604 6.51773 8.54865 6.71119 8.36839M12.0014 13.6586C10.8794 14.5138 9.51322 14.9876 8.10265 15.0107C3.5082 15.0107 0.882802 9.75985 0.882802 9.75985C1.69923 8.23836 2.83159 6.90906 4.20393 5.86113L12.0014 13.6586ZM6.72432 4.66657C7.17611 4.56082 7.63866 4.50796 8.10265 4.50905C12.6971 4.50905 15.3225 9.75985 15.3225 9.75985C14.9241 10.5052 14.4489 11.2069 13.9048 11.8536L6.72432 4.66657Z"
        stroke="#9D9D9D" stroke-width="1.3127" stroke-linecap="round" stroke-linejoin="round" />
    <path d="M1 1L15.4397 15.4397" stroke="#9D9D9D" stroke-linecap="round" stroke-linejoin="round" />
</svg>